<svg width="124" height="126" viewBox="0 0 124 126" fill="none" xmlns="http://www.w3.org/2000/svg">
<path d="M48.9781 6.84481C55.3273 -2.2816 68.6727 -2.28161 75.0219 6.84481L75.4298 7.43121C78.9766 12.5295 85.1003 15.1019 91.163 14.0404L91.8603 13.9183C102.713 12.0181 112.15 21.5883 110.276 32.5948L110.156 33.302C109.109 39.4505 111.645 45.6609 116.673 49.258L117.251 49.6717C126.25 56.1108 126.25 69.6452 117.251 76.0843L116.673 76.498C111.645 80.0951 109.109 86.3055 110.156 92.454L110.276 93.1612C112.15 104.168 102.713 113.738 91.8603 111.838L91.163 111.716C85.1003 110.654 78.9766 113.227 75.4298 118.325L75.0219 118.911C68.6727 128.038 55.3273 128.038 48.9781 118.911L48.5702 118.325C45.0234 113.227 38.8997 110.654 32.837 111.716L32.1397 111.838C21.2869 113.738 11.8503 104.168 13.724 93.1612L13.8443 92.454C14.8911 86.3055 12.3545 80.0951 7.32744 76.498L6.74924 76.0843C-2.24975 69.6452 -2.24975 56.1108 6.74923 49.6717L7.32744 49.258C12.3545 45.6609 14.8911 39.4505 13.8443 33.302L13.724 32.5948C11.8503 21.5883 21.2869 12.0181 32.1397 13.9183L32.837 14.0404C38.8997 15.1019 45.0234 12.5295 48.5702 7.43121L48.9781 6.84481Z" fill="#26AE60" fill-opacity="0.8"/>
<path d="M51.2341 84.7736H51.2392H51.2393H51.2393H51.2393H51.2394H51.2394H51.2395H51.2395H51.2396H51.2396H51.2396H51.2397H51.2397H51.2398H51.2398H51.2398H51.2399H51.2399H51.24H51.24H51.2401H51.2401H51.2401H51.2402H51.2402H51.2403H51.2403H51.2404H51.2404H51.2404H51.2405H51.2405H51.2406H51.2406H51.2406H51.2407H51.2407H51.2408H51.2408H51.2409H51.2409H51.2409H51.241H51.241H51.2411H51.2411H51.2412H51.2412H51.2412H51.2413H51.2413H51.2414H51.2414H51.2414H51.2415H51.2415H51.2416H51.2416H51.2417H51.2417H51.2417H51.2418H51.2418H51.2419H51.2419H51.242H51.242H51.242H51.2421H51.2421H51.2422H51.2422H51.2422H51.2423H51.2423H51.2424H51.2424H51.2425H51.2425H51.2425H51.2426H51.2426H51.2427H51.2427H51.2428H51.2428H51.2428H51.2429H51.2429H51.243H51.243H51.243H51.2431H51.2431H51.2432H51.2432H51.2433H51.2433H51.2433H51.2434H51.2434H51.2435H51.2435H51.2436H51.2436H51.2436H51.2437H51.2437H51.2438H51.2438H51.2438H51.2439H51.2439H51.244H51.244H51.2441H51.2441H51.2441H51.2442H51.2442H51.2443H51.2443H51.2444H51.2444H51.2444H51.2445H51.2445H51.2446H51.2446H51.2446H51.2447H51.2447H51.2448H51.2448H51.2449H51.2449H51.2449H51.245H51.245H51.2451H51.2451H51.2452H51.2452H51.2452H51.2453H51.2453H51.2454H51.2454H51.2454H51.2455H51.2455H51.2456H51.2456H51.2457H51.2457H51.2457H51.2458H51.2458H51.2459H51.2459H51.246H51.246H51.246H51.2461H51.2461H51.2462H51.2462H51.2462H51.2463H51.2463H51.2464H51.2464H51.2465H51.2465H51.2465H51.2466H51.2466H51.2467H51.2467H51.2468H51.2468H51.2468H51.2469H51.2469H51.247H51.247H51.247H51.2471H51.2471H51.2472H51.2472H51.2473H51.2473H51.2473H51.2474H51.2474H51.2475H51.2475H51.2476H51.2476H51.2476H51.2477H51.2477H51.2478H51.2478H51.2478H51.2479H51.2479H51.248H51.248H51.2481H51.2481H51.2481H51.2482H51.2482H51.2483H51.2483H51.2484H51.2484H51.2484H51.2485H51.2485H51.2486H51.2486H51.2486H51.2487H51.2487H51.2488H51.2488H51.2489H51.2489H51.2489H51.249H51.249H51.2491H51.2491H51.2492H51.2492H51.2492H51.2493H51.2493H51.2494H51.2494H51.2494H51.2495H51.2495H51.2496H51.2496H51.2497H51.2497H51.2497H51.2498H51.2498H51.2499H51.2499H51.2499H51.25C52.2311 84.7736 53.1723 84.379 53.8618 83.6758C53.8624 83.6751 53.8631 83.6745 53.8637 83.6738L89.6945 47.3356C91.1284 45.8815 91.1284 43.5296 89.6945 42.0755C88.253 40.6135 85.91 40.6135 84.4685 42.0755L51.2664 75.7478L39.5482 63.6753C39.548 63.6752 39.5479 63.675 39.5477 63.6748C38.1186 62.201 35.7724 62.1883 34.3222 63.6341L34.321 63.6353C32.8785 65.0784 32.8576 67.43 34.2827 68.8952L48.6155 83.6562L48.6159 83.6567C49.3074 84.3679 50.248 84.7686 51.2341 84.7736Z" fill="white" stroke="white" stroke-width="2"/>
</svg>
