<svg width="24" height="24" viewBox="0 0 24 24" fill="none" xmlns="http://www.w3.org/2000/svg">
<g clip-path="url(#clip0_212_178)">
<path fill-rule="evenodd" clip-rule="evenodd" d="M6.85714 11.143H1.71429C1.25963 11.143 0.823594 10.9623 0.502103 10.6409C0.180612 10.3194 0 9.88333 0 9.42868V4.28582C0 3.83116 0.180612 3.39513 0.502103 3.07364C0.823594 2.75214 1.25963 2.57153 1.71429 2.57153H6.85714C7.3118 2.57153 7.74783 2.75214 8.06933 3.07364C8.39082 3.39513 8.57143 3.83116 8.57143 4.28582V9.42868C8.57143 9.88333 8.39082 10.3194 8.06933 10.6409C7.74783 10.9623 7.3118 11.143 6.85714 11.143ZM13.7143 3.85725C13.3733 3.85725 13.0463 3.99271 12.8051 4.23382C12.564 4.47494 12.4286 4.80197 12.4286 5.14296C12.4286 5.48395 12.564 5.81098 12.8051 6.0521C13.0463 6.29322 13.3733 6.42868 13.7143 6.42868H15V18.3618C15.6211 17.7543 16.4121 17.3499 17.2682 17.202C18.1243 17.0541 19.0051 17.1698 19.794 17.5338C20.5829 17.8977 21.2426 18.4928 21.6857 19.2401C22.1289 19.9873 22.3345 20.8516 22.2754 21.7184C23.3503 21.3412 24 20.239 24 18.8572C24 15.5538 21.2914 12.6498 17.5714 12.4407V10.7984C17.9486 11.0178 18.3891 11.143 18.8571 11.143H20.5714C20.7988 11.143 21.0168 11.0527 21.1775 10.8919C21.3383 10.7312 21.4286 10.5131 21.4286 10.2858V6.85725C21.4286 6.62992 21.3383 6.4119 21.1775 6.25116C21.0168 6.09041 20.7988 6.0001 20.5714 6.0001H18.8571C18.3891 6.0001 17.9486 6.12525 17.5714 6.34296V5.14296C17.5714 4.80197 17.436 4.47494 17.1949 4.23382C16.9537 3.99271 16.6267 3.85725 16.2857 3.85725H13.7143ZM13.7314 21.8572C13.6409 20.9636 13.8334 20.0641 14.2817 19.2858H14.1429C13.8019 19.2858 13.4748 19.1504 13.2337 18.9092C12.9926 18.6681 12.8571 18.3411 12.8571 18.0001V17.143C12.8571 16.5239 12.7352 15.9108 12.4983 15.3389C12.2614 14.7669 11.9141 14.2472 11.4764 13.8095C11.0386 13.3717 10.5189 13.0244 9.94694 12.7875C9.37497 12.5506 8.76195 12.4287 8.14286 12.4287H4.71429C3.46398 12.4287 2.26488 12.9254 1.38078 13.8095C0.496682 14.6936 0 15.8927 0 17.143L0 20.5715C0 21.2812 0.576 21.8572 1.28571 21.8572H1.73143C1.6716 21.2611 1.73738 20.659 1.92454 20.0899C2.11169 19.5207 2.41605 18.9971 2.818 18.5528C3.21994 18.1085 3.71055 17.7534 4.25818 17.5103C4.8058 17.2673 5.39829 17.1417 5.99743 17.1417C6.59657 17.1417 7.18905 17.2673 7.73668 17.5103C8.28431 17.7534 8.77491 18.1085 9.17686 18.5528C9.57881 18.9971 9.88317 19.5207 10.0703 20.0899C10.2575 20.659 10.3233 21.2611 10.2634 21.8572H13.7314ZM3.42514 21.427C3.42514 22.1094 3.69624 22.7639 4.1788 23.2464C4.66136 23.729 5.31585 24.0001 5.99829 24.0001C6.68073 24.0001 7.33521 23.729 7.81777 23.2464C8.30033 22.7639 8.57143 22.1094 8.57143 21.427C8.57143 20.7445 8.30033 20.09 7.81777 19.6075C7.33521 19.1249 6.68073 18.8538 5.99829 18.8538C5.31585 18.8538 4.66136 19.1249 4.1788 19.6075C3.69624 20.09 3.42514 20.7445 3.42514 21.427ZM15.4251 21.427C15.4251 22.1094 15.6962 22.7639 16.1788 23.2464C16.6614 23.729 17.3158 24.0001 17.9983 24.0001C18.6807 24.0001 19.3352 23.729 19.8178 23.2464C20.3003 22.7639 20.5714 22.1094 20.5714 21.427C20.5714 20.7445 20.3003 20.09 19.8178 19.6075C19.3352 19.1249 18.6807 18.8538 17.9983 18.8538C17.3158 18.8538 16.6614 19.1249 16.1788 19.6075C15.6962 20.09 15.4251 20.7445 15.4251 21.427Z" fill="#003049"/>
</g>
<defs>
<clipPath id="clip0_212_178">
<rect width="24" height="24" fill="white"/>
</clipPath>
</defs>
</svg>
