<svg width="72" height="72" viewBox="0 0 72 72" fill="none" xmlns="http://www.w3.org/2000/svg">
<rect width="72" height="72" rx="16" fill="#ECEBFF"/>
<path d="M55.5677 47.0575L55.577 47.0525H55.5589L44.9326 41.2945L34.2887 35.5264L23.6443 41.2945L13.0181 47.0525H13L13.0093 47.0575L13 47.0626H13.0181L23.6443 52.8206L34.2887 58.5887L44.9326 52.8206L55.5589 47.0626H55.577L55.5677 47.0575Z" fill="#DCD8FF"/>
<path d="M55.5677 24.9423L55.577 24.9376H55.5589L44.9326 19.1792L34.2887 13.4111L23.6443 19.1792L13.0181 24.9376H13L13.0093 24.9423L13 24.9473H13.0181L23.6443 30.7058L34.2887 36.4739L44.9326 30.7058L55.5589 24.9473H55.577L55.5677 24.9423Z" fill="url(#paint0_linear_1_3883)"/>
<path d="M13.0176 24.4736V47.5262L34.2882 36.0002L13.0176 24.4736Z" fill="#003049"/>
<path d="M55.5593 24.4736V47.5262L34.2891 36.0002L55.5593 24.4736Z" fill="#003049"/>
<defs>
<linearGradient id="paint0_linear_1_3883" x1="34.2885" y1="13.4111" x2="34.2885" y2="36.4739" gradientUnits="userSpaceOnUse">
<stop stop-color="#ED6470"/>
<stop offset="1" stop-color="#E63948"/>
</linearGradient>
</defs>
</svg>
